<?xml version="1.0" encoding="UTF-8" standalone="no"?>
<!-- Created with Inkscape (http://www.inkscape.org/) -->

<svg
   width="32mm"
   height="32mm"
   viewBox="0 0 32 32"
   version="1.1"
   id="svg1660"
   inkscape:export-filename="/tmp/bitmap.png"
   inkscape:export-xdpi="96"
   inkscape:export-ydpi="96"
   inkscape:version="1.1.2 (b8e25be8, 2022-02-05)"
   sodipodi:docname="logo.svg"
   xmlns:inkscape="http://www.inkscape.org/namespaces/inkscape"
   xmlns:sodipodi="http://sodipodi.sourceforge.net/DTD/sodipodi-0.dtd"
   xmlns="http://www.w3.org/2000/svg"
   xmlns:svg="http://www.w3.org/2000/svg">
  <sodipodi:namedview
     id="namedview1662"
     pagecolor="#ffffff"
     bordercolor="#666666"
     borderopacity="1.0"
     inkscape:pageshadow="2"
     inkscape:pageopacity="1"
     inkscape:pagecheckerboard="0"
     inkscape:document-units="mm"
     showgrid="false"
     fit-margin-top="0"
     fit-margin-left="0"
     fit-margin-right="0"
     fit-margin-bottom="0"
     width="32mm"
     inkscape:zoom="2.6034257"
     inkscape:cx="24.006831"
     inkscape:cy="49.358044"
     inkscape:window-width="1680"
     inkscape:window-height="965"
     inkscape:window-x="0"
     inkscape:window-y="25"
     inkscape:window-maximized="1"
     inkscape:current-layer="layer1" />
  <defs
     id="defs1657" />
  <g
     inkscape:label="Layer 1"
     inkscape:groupmode="layer"
     id="layer1"
     transform="translate(-81.874643,-112.62415)">
    <rect
       style="fill:#ffffff;stroke-width:0.264583"
       id="rect1737"
       width="40.651569"
       height="39.838535"
       x="79.232292"
       y="109.67691" />
    <path
       class="multicolor-0:systemBlueColor SFSymbolsPreview007AFF"
       d="m 94.572715,135.92769 1.511538,-1.53736 c -0.602879,-0.0861 -1.11103,-0.22393 -1.524449,-0.41341 -0.413404,-0.18948 -0.766525,-0.43494 -1.059366,-0.73639 -0.577056,-0.57705 -0.962474,-1.21225 -1.156255,-1.90558 -0.1938,-0.69331 -0.195951,-1.38448 -0.0065,-2.07351 0.189476,-0.68901 0.568431,-1.31774 1.136862,-1.88619 l 3.307291,-3.30729 c 0.56845,-0.57706 1.199338,-0.96033 1.892671,-1.1498 0.693314,-0.18948 1.386633,-0.18948 2.079973,0 0.69333,0.18947 1.32851,0.57274 1.90556,1.1498 0.57705,0.58566 0.96248,1.22516 1.15628,1.91849 0.19378,0.69332 0.19378,1.38449 0,2.07351 -0.1938,0.68901 -0.57491,1.31774 -1.14334,1.88619 l -1.74409,1.74408 c 0.16364,0.37896 0.26698,0.77084 0.31004,1.17565 0.0431,0.4048 0.0431,0.78806 0,1.1498 l 2.8293,-2.82929 c 0.82682,-0.82683 1.38019,-1.74193 1.6601,-2.74532 0.27991,-1.00339 0.27991,-2.00677 0,-3.01014 -0.27991,-1.00338 -0.83758,-1.9228 -1.67301,-2.75823 -0.83545,-0.84405 -1.75486,-1.40388 -2.75824,-1.67949 -1.00338,-0.27561 -2.006774,-0.27346 -3.010161,0.006 -1.003388,0.27992 -1.918494,0.83328 -2.745317,1.66011 l -3.462311,3.47525 c -0.826823,0.82682 -1.380191,1.73977 -1.660102,2.73886 -0.27991,0.99906 -0.27991,2.00244 0,3.01013 0.279911,1.0077 0.837584,1.92926 1.673014,2.76469 0.284234,0.28423 0.62013,0.53401 1.007692,0.74932 0.38758,0.21532 0.878504,0.39188 1.472776,0.52967 z"
       id="path925"
       sodipodi:nodetypes="ccscssccsscssccscssscssccssssc"
       style="fill:#ff0000;stroke-width:0.264583" />
    <path
       class="multicolor-0:systemBlueColor SFSymbolsPreview007AFF"
       d="m 95.374392,127.80753 -1.511538,1.53736 c 0.60288,0.0861 1.11103,0.22394 1.52445,0.41341 0.413403,0.18948 0.766524,0.43494 1.059365,0.73639 0.577056,0.57706 0.962475,1.21225 1.156256,1.90558 0.193799,0.69332 0.19595,1.38449 0.0065,2.07352 -0.189477,0.689 -0.568431,1.31773 -1.136862,1.88618 l -3.307292,3.30729 c -0.568449,0.57706 -1.199337,0.96033 -1.89267,1.1498 -0.693314,0.18948 -1.386636,0.18948 -2.079969,0 -0.693333,-0.18947 -1.328518,-0.57274 -1.905556,-1.1498 -0.577056,-0.58566 -0.962482,-1.22516 -1.156282,-1.91849 -0.193781,-0.69331 -0.193781,-1.38448 0,-2.07351 0.1938,-0.68901 0.574913,-1.31774 1.143344,-1.88619 l 1.744081,-1.74408 c -0.163637,-0.37896 -0.266984,-0.77084 -0.310039,-1.17565 -0.04307,-0.40479 -0.04307,-0.78806 0,-1.1498 l -2.829296,2.8293 c -0.826822,0.82682 -1.380191,1.74192 -1.660101,2.74531 -0.279911,1.00339 -0.279911,2.00677 0,3.01014 0.27991,1.00339 0.837583,1.9228 1.673013,2.75823 0.835448,0.84405 1.754857,1.40389 2.758228,1.67949 1.003388,0.27561 2.006778,0.27346 3.010165,-0.006 1.003387,-0.27991 1.918494,-0.83328 2.745317,-1.6601 l 3.462311,-3.47525 c 0.826823,-0.82683 1.380191,-1.73978 1.660101,-2.73886 0.279911,-0.99907 0.279911,-2.00245 0,-3.01014 -0.27991,-1.00769 -0.837583,-1.92926 -1.673013,-2.76469 -0.284234,-0.28423 -0.62013,-0.534 -1.007692,-0.74932 -0.38758,-0.21532 -0.878504,-0.39188 -1.472777,-0.52967 z"
       id="path1475"
       sodipodi:nodetypes="ccscssccsscssccscssscssccssssc"
       style="fill:#0000ff;stroke-width:0.264583" />
    <path
       class="multicolor-0:systemBlueColor SFSymbolsPreview007AFF"
       d="m 100.56023,128.8817 1.51154,-1.53736 c -0.60288,-0.0861 -1.11103,-0.22393 -1.52445,-0.4134 -0.4134,-0.18947 -0.766524,-0.43494 -1.059363,-0.73639 -0.577061,-0.57706 -0.962477,-1.21225 -1.156258,-1.90559 -0.193797,-0.69331 -0.19595,-1.38448 -0.0065,-2.07351 0.189466,-0.68901 0.568426,-1.31773 1.136859,-1.88618 l 3.307302,-3.3073 c 0.56845,-0.57705 1.19933,-0.96032 1.89267,-1.1498 0.69331,-0.18947 1.38663,-0.18947 2.07996,0 0.69334,0.18948 1.32853,0.57275 1.90556,1.1498 0.57706,0.58567 0.96248,1.22517 1.15629,1.9185 0.19377,0.69331 0.19377,1.38448 -10e-6,2.07351 -0.1938,0.68901 -0.57491,1.31774 -1.14335,1.88619 l -1.74407,1.74409 c 0.16364,0.37894 0.26698,0.77083 0.31003,1.17564 0.0431,0.4048 0.0431,0.78807 0,1.14981 l 2.82929,-2.8293 c 0.82682,-0.82682 1.3802,-1.74193 1.6601,-2.74532 0.27993,-1.00339 0.27992,-2.00677 0,-3.01014 -0.27992,-1.00339 -0.83758,-1.9228 -1.67301,-2.75823 -0.83545,-0.84405 -1.75486,-1.40388 -2.75823,-1.67949 -1.00339,-0.2756 -2.00678,-0.27346 -3.01016,0.006 -1.00338,0.27992 -1.91849,0.83327 -2.74532,1.66009 l -3.462313,3.47526 c -0.826821,0.82682 -1.380186,1.73978 -1.660097,2.73887 -0.279913,0.99906 -0.279908,2.00245 -5e-6,3.01014 0.2799,1.00769 0.837586,1.92925 1.673021,2.76468 0.284231,0.28424 0.620128,0.53401 1.007695,0.74933 0.387583,0.2153 0.878496,0.39187 1.472769,0.52967 z"
       id="path1595"
       sodipodi:nodetypes="ccscssccsscssccscssscssccssssc"
       style="fill:#0000ff;stroke-width:0.264583" />
  </g>
</svg>
